{
  "accessors": [
    {
      "bufferView": 2,
      "componentType": 5126,
      "count": 5013,
      "max": [
        32.3074951171875,
        36.775138854980469,
        37.041255950927734
      ],
      "min": [
        -36.884101867675781,
        -36.787853240966797,
        -37.547710418701172
      ],
      "type": "VEC3"
    },
    {
      "bufferView": 2,
      "byteOffset": 60156,
      "componentType": 5126,
      "count": 5013,
      "max": [
        0.99857157468795776,
        0.99304628372192383,
        0.99978733062744141
      ],
      "min": [
        -0.99809014797210693,
        -0.99492573738098145,
        -0.99815952777862549
      ],
      "type": "VEC3"
    },
    {
      "bufferView": 3,
      "componentType": 5126,
      "count": 5013,
      "max": [
        0.99947977066040039,
        0.99443387985229492,
        0.99919921159744263,
        1
      ],
      "min": [
        -0.99844467639923096,
        -0.99882739782333374,
        -0.89697521924972534,
        -1
      ],
      "type": "VEC4"
    },
    {
      "bufferView": 1,
      "componentType": 5126,
      "count": 5013,
      "max": [
        0.95620548725128174,
        0.90728020668029785
      ],
      "min": [
        0.030905663967132568,
        0.13129933178424835
      ],
      "type": "VEC2"
    },
    {
      "bufferView": 0,
      "componentType": 5125,
      "count": 5979,
      "max": [
        5012
      ],
      "min": [
        0
      ],
      "type": "SCALAR"
    },
    {
      "bufferView": 2,
      "byteOffset": 120312,
      "componentType": 5126,
      "count": 1494,
      "max": [
        36.674579620361328,
        36.680072784423828,
        36.595565795898438
      ],
      "min": [
        -36.490421295166016,
        -36.680068969726562,
        -36.596366882324219
      ],
      "type": "VEC3"
    },
    {
      "bufferView": 2,
      "byteOffset": 138240,
      "componentType": 5126,
      "count": 1494,
      "max": [
        0.99522346258163452,
        0.99603021144866943,
        0.99666357040405273
      ],
      "min": [
        -0.99883002042770386,
        -0.99756109714508057,
        -0.99883568286895752
      ],
      "type": "VEC3"
    },
    {
      "bufferView": 3,
      "byteOffset": 80208,
      "componentType": 5126,
      "count": 1494,
      "max": [
        0.99601882696151733,
        0.99991744756698608,
        0.67470228672027588,
        1
      ],
      "min": [
        -0.99786961078643799,
        -0.99670284986495972,
        -0.71588313579559326,
        1
      ],
      "type": "VEC4"
    },
    {
      "bufferView": 0,
      "byteOffset": 23916,
      "componentType": 5125,
      "count": 1494,
      "max": [
        1493
      ],
      "min": [
        0
      ],
      "type": "SCALAR"
    }
  ],
  "asset": {
    "extras": {
      "author": "Comeback (https://sketchfab.com/c3posw01)",
      "license": "SKETCHFAB Standard (https://sketchfab.com/licenses)",
      "source": "https://sketchfab.com/models/c547788ca8904f528d7da8bc638277d1",
      "title": "Planet Earth"
    },
    "generator": "Sketchfab-3.18.5",
    "version": "2.0"
  },
  "bufferViews": [
    {
      "buffer": 0,
      "byteLength": 29892,
      "byteOffset": 0,
      "name": "floatBufferViews",
      "target": 34963
    },
    {
      "buffer": 0,
      "byteLength": 40104,
      "byteOffset": 29892,
      "byteStride": 8,
      "name": "floatBufferViews",
      "target": 34962
    },
    {
      "buffer": 0,
      "byteLength": 156168,
      "byteOffset": 69996,
      "byteStride": 12,
      "name": "floatBufferViews",
      "target": 34962
    },
    {
      "buffer": 0,
      "byteLength": 104112,
      "byteOffset": 226164,
      "byteStride": 16,
      "name": "floatBufferViews",
      "target": 34962
    }
  ],
  "buffers": [
    {
      "byteLength": 330276,
      "uri": "scene.bin"
    }
  ],
  "images": [
    {
      "uri": "textures/Earth_Ground_baseColor.png"
    }
  ],
  "materials": [
    {
      "doubleSided": true,
      "emissiveFactor": [
        0,
        0,
        0
      ],
      "name": "Earth_Ground",
      "pbrMetallicRoughness": {
        "baseColorFactor": [
          1,
          1,
          1,
          1
        ],
        "baseColorTexture": {
          "index": 0,
          "texCoord": 0
        },
        "metallicFactor": 0,
        "roughnessFactor": 0.89297135959999996
      }
    },
    {
      "doubleSided": true,
      "emissiveFactor": [
        0,
        0,
        0
      ],
      "name": "Earth_Water",
      "pbrMetallicRoughness": {
        "baseColorFactor": [
          0,
          0.36862699999999998,
          0.87451000000000001,
          1
        ],
        "metallicFactor": 0,
        "roughnessFactor": 0.89297135959999996
      }
    }
  ],
  "meshes": [
    {
      "name": "Earth_Ground_Earth_Ground_0",
      "primitives": [
        {
          "attributes": {
            "NORMAL": 1,
            "POSITION": 0,
            "TANGENT": 2,
            "TEXCOORD_0": 3
          },
          "indices": 4,
          "material": 0,
          "mode": 4
        }
      ]
    },
    {
      "name": "Earth_Water_Earth_Water_0",
      "primitives": [
        {
          "attributes": {
            "NORMAL": 6,
            "POSITION": 5,
            "TANGENT": 7
          },
          "indices": 8,
          "material": 1,
          "mode": 4
        }
      ]
    }
  ],
  "nodes": [
    {
      "children": [
        1
      ],
      "name": "RootNode (gltf orientation matrix)",
      "rotation": [
        -0.70710678118654746,
        -0,
        -0,
        0.70710678118654757
      ]
    },
    {
      "children": [
        2
      ],
      "name": "RootNode (model correction matrix)"
    },
    {
      "children": [
        3
      ],
      "matrix": [
        1,
        0,
        0,
        0,
        0,
        0,
        1,
        0,
        0,
        -1,
        0,
        0,
        0,
        0,
        0,
        1
      ],
      "name": "f646b4e865244d2fa9b8808dd0001300.fbx"
    },
    {
      "children": [
        4,
        6
      ],
      "name": "RootNode"
    },
    {
      "children": [
        5
      ],
      "matrix": [
        0.99999999999998468,
        1.3234889800848443e-23,
        -1.7484555314694902e-07,
        0,
        -1.7484555314694637e-07,
        1.7484555325797402e-07,
        -0.99999999999996947,
        0,
        3.057096748233995e-14,
        0.99999999999998479,
        1.7484555325797402e-07,
        0,
        0,
        0,
        0,
        1
      ],
      "name": "Earth_Ground"
    },
    {
      "mesh": 0,
      "name": "Earth_Ground_Earth_Ground_0"
    },
    {
      "children": [
        7
      ],
      "matrix": [
        0.99999999999998468,
        1.3234889800848443e-23,
        -1.7484555314694902e-07,
        0,
        -1.7484555314694637e-07,
        1.7484555325797402e-07,
        -0.99999999999996947,
        0,
        3.057096748233995e-14,
        0.99999999999998479,
        1.7484555325797402e-07,
        0,
        0,
        0,
        0,
        1
      ],
      "name": "Earth_Water"
    },
    {
      "mesh": 1,
      "name": "Earth_Water_Earth_Water_0"
    }
  ],
  "samplers": [
    {
      "magFilter": 9729,
      "minFilter": 9987,
      "wrapS": 10497,
      "wrapT": 10497
    }
  ],
  "scene": 0,
  "scenes": [
    {
      "name": "OSG_Scene",
      "nodes": [
        0
      ]
    }
  ],
  "textures": [
    {
      "sampler": 0,
      "source": 0
    }
  ]
}

